<svg xmlns="http://www.w3.org/2000/svg" width="2000" height="1400" viewBox="0 0 2000 1400" role="img" aria-labelledby="title desc">
  <title id="title">Harman Kardom mühendislik tipi modül bağlantı şeması</title>
  <desc id="desc">Örnek EasyEDA pafta stilinde 4S batarya, BMS, güç, ESP32-S3, PCM5102A, XH-A232, kontroller, hoparlörler ve test noktaları şeması.</desc>
  <defs>
    <style>
      .paper{fill:#fff}.border{fill:none;stroke:#9f1d20;stroke-width:1.3}.grid{stroke:#9f1d20;stroke-width:1}.wire{fill:none;stroke:#16843f;stroke-width:2;stroke-linecap:square;stroke-linejoin:miter}.power{stroke:#16843f;stroke-width:2.4}.signal{stroke:#16843f;stroke-width:1.8}.part{fill:none;stroke:#9f1d20;stroke-width:1.7}.symbol{fill:none;stroke:#111;stroke-width:1.7}.node{fill:#b91c1c}.nc{stroke:#b91c1c;stroke-width:2.2}.txt{font:14px Arial,sans-serif;fill:#111}.small{font:12px Arial,sans-serif;fill:#111}.tiny{font:10.5px Arial,sans-serif;fill:#111}.pin{font:11px Consolas,monospace;fill:#111}.ref{font:12px Arial,sans-serif;fill:#9f1d20}.value{font:11px Arial,sans-serif;fill:#1d3d8f}.net{font:12px Arial,sans-serif;fill:#1d3d8f}.head{font:700 42px Arial,sans-serif;fill:#111}.main{font:700 48px Arial,sans-serif;fill:#111}.sub{font:700 29px Arial,sans-serif;fill:#111}.note{font:11px Arial,sans-serif;fill:#111}.warn{font:700 12px Arial,sans-serif;fill:#9f1d20}.tp{fill:#fff;stroke:#d24a00;stroke-width:1.8}.tptext{font:700 8px Arial,sans-serif;fill:#b33b00;text-anchor:middle}.sheet{font:12px Arial,sans-serif;fill:#9f1d20}.sheetval{font:15px Arial,sans-serif;fill:#172554}.dash{stroke-dasharray:5 4}
    </style>
    <g id="gnd"><path class="symbol" d="M0 0 V8 M-12 8 H12 M-8 13 H8 M-4 18 H4"/></g>
    <g id="tp"><circle class="tp" cx="0" cy="0" r="11"/></g>
    <g id="res"><path class="symbol" d="M0 0 H8 L14 -8 L26 8 L38 -8 L50 8 L62 -8 L68 0 H76"/></g>
    <g id="cap"><path class="symbol" d="M0 0 H28 M28 -14 V14 M38 -14 V14 M38 0 H66"/></g>
    <g id="switch"><path class="symbol" d="M0 0 H22 M22 0 L52 -18 M52 0 H78"/><circle class="node" cx="22" cy="0" r="3"/><circle class="node" cx="52" cy="0" r="3"/></g>
    <g id="fuse"><path class="part" d="M0 0 H12 M12 -8 H58 V8 H12 Z M58 0 H72"/></g>
    <g id="cell"><path class="symbol" d="M0 0 H18 M18 -13 V13 M28 -7 V7 M28 0 H48"/></g>
    <g id="speaker"><path class="symbol" d="M0 -20 H18 L44 -42 V42 L18 20 H0 Z"/></g>
  </defs>

  <rect class="paper" width="2000" height="1400"/>
  <rect class="border" x="12" y="12" width="1976" height="1376"/>
  <rect class="border" x="24" y="24" width="1952" height="1352"/>

  <!-- coordinate frame -->
  <g class="sheet">
    <text x="180" y="21">1</text><text x="500" y="21">2</text><text x="820" y="21">3</text><text x="1140" y="21">4</text><text x="1460" y="21">5</text><text x="1780" y="21">6</text>
    <text x="180" y="1385">1</text><text x="500" y="1385">2</text><text x="820" y="1385">3</text><text x="1140" y="1385">4</text><text x="1460" y="1385">5</text><text x="1780" y="1385">6</text>
    <text x="15" y="180">A</text><text x="15" y="500">B</text><text x="15" y="820">C</text><text x="15" y="1140">D</text>
    <text x="1979" y="180">A</text><text x="1979" y="500">B</text><text x="1979" y="820">C</text><text x="1979" y="1140">D</text>
  </g>
  <g class="grid"><path d="M345 12 V24 M665 12 V24 M985 12 V24 M1305 12 V24 M1625 12 V24 M345 1376 V1388 M665 1376 V1388 M985 1376 V1388 M1305 1376 V1388 M1625 1376 V1388"/><path d="M12 345 H24 M12 665 H24 M12 985 H24 M12 1305 H24 M1976 345 H1988 M1976 665 H1988 M1976 985 H1988 M1976 1305 H1988"/></g>

  <text class="main" x="720" y="78">HARMAN KARDOM ACTIVE SPEAKER</text>
  <text class="txt" x="48" y="52">PROTOTYPE / MODÜL BAĞLANTI ŞEMASI</text>
  <text class="note" x="48" y="72">Yeşil: bağlantı ağı · Kırmızı: parça/ref · Mavi: net/değer · TBD/ADAY: ölçüm bekliyor</text>

  <!-- 4S BATTERY AND BMS -->
  <text class="head" x="55" y="145">4S Battery &amp; BMS</text>
  <text class="note" x="60" y="172">Yalnız eşlenmiş yeni hücre, profesyonel punta, balanslı BMS, paket sigortası ve NTC.</text>
  <g transform="translate(70 220)">
    <text class="net" x="0" y="-18">PACK_B+</text>
    <use href="#cell" x="30" y="0"/><text class="ref" x="48" y="-18">BT4</text><text class="value" x="44" y="24">Li-ion</text>
    <use href="#cell" x="30" y="70"/><text class="ref" x="48" y="52">BT3</text>
    <use href="#cell" x="30" y="140"/><text class="ref" x="48" y="122">BT2</text>
    <use href="#cell" x="30" y="210"/><text class="ref" x="48" y="192">BT1</text>
    <path class="wire power" d="M0 0 H30 M118 0 H155 V70 H30 M118 70 H155 V140 H30 M118 140 H155 V210 H30 M118 210 H155 V270 H0"/>
    <text class="net" x="0" y="292">PACK_B−</text>
    <use href="#tp" x="0" y="270"/><text class="tptext" x="0" y="274">TP0</text>
    <use href="#tp" x="155" y="210"/><text class="tptext" x="155" y="214">TP1</text>
    <use href="#tp" x="155" y="140"/><text class="tptext" x="155" y="144">TP2</text>
    <use href="#tp" x="155" y="70"/><text class="tptext" x="155" y="74">TP3</text>
    <use href="#tp" x="155" y="0"/><text class="tptext" x="155" y="4">TP4</text>
  </g>
  <rect class="part" x="285" y="205" width="210" height="330"/>
  <text class="sub" x="305" y="245">4S BMS</text><text class="value" x="310" y="267">balanced · NTC · common-port ref.</text>
  <text class="pin" x="295" y="305">B+</text><text class="pin" x="295" y="350">B3</text><text class="pin" x="295" y="395">B2</text><text class="pin" x="295" y="440">B1</text><text class="pin" x="295" y="485">B−</text>
  <text class="pin" x="455" y="305">P+</text><text class="pin" x="455" y="485">P−</text><text class="pin" x="455" y="520">NTC</text>
  <path class="wire" d="M225 220 H270 V305 H285 M225 290 H260 V350 H285 M225 360 H250 V395 H285 M225 430 H240 V440 H285 M70 490 H285 V485"/>
  <path class="wire power" d="M495 305 H540"/><use href="#tp" x="520" y="305"/><text class="tptext" x="520" y="309">TP5</text>
  <path class="wire" d="M495 485 H540"/><use href="#tp" x="520" y="485"/><text class="tptext" x="520" y="489">TP6</text><text class="net" x="500" y="472">POWER_GND</text>
  <path class="wire dash" d="M495 520 H540"/><use href="#tp" x="520" y="520"/><text class="tptext" x="520" y="524">TP27</text>

  <!-- charging and main power -->
  <text class="sub" x="560" y="140">Charging &amp; Main Power</text>
  <text class="net" x="570" y="205">BMS_P+</text><path class="wire power" d="M540 305 H600 V220"/>
  <use href="#fuse" x="600" y="220"/><text class="ref" x="615" y="202">F_CHG</text><text class="value" x="613" y="244">3 A ADAY</text>
  <path class="wire power" d="M672 220 H735"/><use href="#tp" x="705" y="220"/><text class="tptext" x="705" y="224">TP26</text>
  <rect class="part" x="735" y="185" width="125" height="80"/><text class="ref" x="746" y="205">J8</text><text class="txt" x="755" y="230">CHARGE</text><text class="value" x="748" y="250">16.8 V CC/CV</text>
  <path class="wire" d="M797 265 V485 H540"/>
  <text class="warn" x="565" y="280">V1: şarj sırasında amfi kapalı</text>
  <path class="wire power" d="M540 305 H600 V335"/><use href="#fuse" x="600" y="335"/><text class="ref" x="615" y="317">F1</text><text class="value" x="613" y="359">5 A BAŞLANGIÇ ADAYI</text>
  <path class="wire power" d="M672 335 H700"/><use href="#tp" x="695" y="335"/><text class="tptext" x="695" y="339">TP7</text>
  <use href="#switch" x="705" y="335"/><text class="ref" x="724" y="305">S1</text><text class="value" x="714" y="379">24 VDC / 5 A</text>
  <path class="wire power" d="M783 335 H875"/><use href="#tp" x="820" y="335"/><text class="tptext" x="820" y="339">TP8</text><text class="net" x="798" y="316">VBAT_SW 12.0–16.8 V</text>

  <!-- buck module with caps -->
  <text class="head" x="920" y="145">12–16.8 V to 5.10 V</text>
  <path class="wire power" d="M875 335 H925"/>
  <use href="#cap" x="895" y="285"/><text class="ref" x="920" y="267">C_A</text><text class="value" x="900" y="322">470–1000 µF / 25 V ADAY</text><path class="wire" d="M923 285 V335 M933 285 V485"/>
  <rect class="part" x="925" y="300" width="205" height="125"/>
  <text class="sub" x="958" y="340">MP1584</text><text class="ref" x="938" y="320">U1</text>
  <text class="pin" x="935" y="372">IN+</text><text class="pin" x="935" y="405">IN−</text><text class="pin" x="1080" y="372">OUT+</text><text class="pin" x="1080" y="405">OUT−</text>
  <path class="wire" d="M925 372 H900 V335 M925 405 H895 V485"/>
  <path class="wire power" d="M1130 372 H1200"/><use href="#tp" x="1160" y="372"/><text class="tptext" x="1160" y="376">TP9</text><text class="net" x="1138" y="353">+5V_SYS = 5.10 V</text>
  <path class="wire" d="M1130 405 H1160 V485"/>
  <text class="note" x="930" y="447">Önce yüksüz 5.10 V ayarla; sonra elektronik yükte doğrula.</text>
  <rect class="part" x="1200" y="342" width="80" height="58"/><text class="ref" x="1208" y="360">JP1</text><text class="txt" x="1214" y="383">SERVICE</text>
  <path class="wire power" d="M1280 372 H1340"/><text class="net" x="1284" y="353">+5V_ISO</text>
  <text class="note" x="1195" y="430">USB programlama sırasında JP1 açık.</text>

  <!-- amplifier power branch -->
  <path class="wire power" d="M875 335 V505 H1540 V630"/><text class="net" x="1390" y="495">VBAT_SW → XH-A232 VCC</text>
  <path class="wire" d="M540 485 H1880"/>

  <!-- ESP32 section -->
  <text class="head" x="55" y="635">ESP32-S3 Module &amp; Controls</text>
  <rect class="part" x="330" y="680" width="360" height="360"/>
  <text class="sub" x="405" y="720">ESP32-S3 DEVKIT</text><text class="value" x="430" y="744">N8R8 prototip adayı</text>
  <text class="pin" x="342" y="785">5V/VBUS</text><text class="pin" x="342" y="820">3V3</text><text class="pin" x="342" y="855">GND</text>
  <text class="pin" x="560" y="785">GPIO4 / BCLK</text><text class="pin" x="560" y="825">GPIO5 / LRCLK</text><text class="pin" x="560" y="865">GPIO6 / DATA</text><text class="pin" x="560" y="905">GPIO7 / BUTTON</text><text class="pin" x="560" y="945">GPIO8 / LED_R</text><text class="pin" x="560" y="975">GPIO9 / LED_G</text><text class="pin" x="560" y="1005">GPIO10 / LED_B</text>
  <path class="wire power" d="M1340 372 V580 H300 V785 H330"/><text class="net" x="275" y="768">+5V_ISO</text>
  <path class="wire" d="M330 855 H285 V1100"/><use href="#gnd" x="285" y="1100"/>
  <path class="wire" d="M330 820 H260"/><use href="#tp" x="285" y="820"/><text class="tptext" x="285" y="824">TP10</text><text class="net" x="205" y="802">+3V3</text>

  <!-- button -->
  <text class="sub" x="55" y="720">Function button</text>
  <path class="wire" d="M110 760 V790"/><text class="net" x="90" y="750">+3V3</text><use href="#res" x="110" y="790" transform="rotate(90 110 790)"/><text class="ref" x="125" y="825">R_PU</text><text class="value" x="125" y="844">10 kΩ ADAY</text>
  <path class="wire signal" d="M110 866 H220"/><use href="#tp" x="160" y="866"/><text class="tptext" x="160" y="870">TP22</text><use href="#switch" x="220" y="866" transform="scale(.8) translate(55 216.5)"/>
  <path class="wire" d="M282 866 V925"/><use href="#gnd" x="282" y="925"/>
  <path class="wire signal" d="M282 866 H330 V905"/><text class="net" x="210" y="850">BUTTON_N</text>
  <use href="#cap" x="110" y="900" transform="rotate(90 110 900)"/><text class="ref" x="125" y="930">C_DB</text><text class="value" x="125" y="948">100 nF OPS.</text><path class="wire" d="M110 866 V900 M110 966 V990"/><use href="#gnd" x="110" y="990"/>

  <!-- RGB led -->
  <text class="sub" x="55" y="1060">RGB status LED</text>
  <path class="wire signal" d="M690 945 H735"/><use href="#tp" x="710" y="945"/><text class="tptext" x="710" y="949">TP23</text><use href="#res" x="735" y="945"/><text class="value" x="744" y="928">680 Ω ADAY</text>
  <path class="wire signal" d="M690 975 H735"/><use href="#tp" x="710" y="975"/><text class="tptext" x="710" y="979">TP24</text><use href="#res" x="735" y="975"/><text class="value" x="744" y="1010">330 Ω ADAY</text>
  <path class="wire signal" d="M690 1005 H735"/><use href="#tp" x="710" y="1005"/><text class="tptext" x="710" y="1009">TP25</text><use href="#res" x="735" y="1005"/>
  <circle class="part" cx="840" cy="945" r="12"/><circle class="part" cx="840" cy="975" r="12"/><circle class="part" cx="840" cy="1005" r="12"/><path class="wire" d="M811 945 H828 M811 975 H828 M811 1005 H828 M852 945 H875 V1060 M852 975 H875 M852 1005 H875"/><use href="#gnd" x="875" y="1060"/>

  <!-- PCM DAC -->
  <text class="head" x="760" y="635">PCM5102A Audio DAC</text>
  <rect class="part" x="900" y="685" width="300" height="340"/>
  <text class="sub" x="955" y="725">PCM5102A MODULE</text><text class="ref" x="910" y="706">U2</text>
  <text class="pin" x="912" y="775">VIN</text><text class="pin" x="912" y="810">GND/AGND</text><text class="pin" x="912" y="855">BCK</text><text class="pin" x="912" y="895">LCK/LRCK</text><text class="pin" x="912" y="935">DIN</text><text class="pin" x="912" y="975">SCK</text>
  <text class="pin" x="1115" y="855">LOUT</text><text class="pin" x="1115" y="935">ROUT</text>
  <path class="wire power" d="M900 775 H850 V580"/><path class="wire" d="M900 810 H870 V1100"/><use href="#gnd" x="870" y="1100"/>
  <path class="wire signal" d="M690 785 H820 V855 H900"/><use href="#tp" x="790" y="785"/><text class="tptext" x="790" y="789">TP11</text><text class="net" x="704" y="772">I2S_BCLK</text>
  <path class="wire signal" d="M690 825 H800 V895 H900"/><use href="#tp" x="770" y="825"/><text class="tptext" x="770" y="829">TP12</text><text class="net" x="700" y="812">I2S_LRCLK</text>
  <path class="wire signal" d="M690 865 H780 V935 H900"/><use href="#tp" x="750" y="865"/><text class="tptext" x="750" y="869">TP13</text><text class="net" x="702" y="852">I2S_DATA</text>
  <path class="wire" d="M900 975 H880 V1100"/><text class="value" x="905" y="990">3-wire PLL: SCK → GND</text>
  <text class="note" x="915" y="1010">FMT=LOW · FLT=LOW · DEMP=LOW · XSMT=HIGH/default</text>

  <!-- AMP and speakers -->
  <text class="head" x="1240" y="635">Bi-Amp &amp; Drivers</text>
  <rect class="part" x="1390" y="680" width="300" height="360"/>
  <text class="sub" x="1420" y="720">XH-A232 / TPA3110</text><text class="ref" x="1400" y="702">U3</text><text class="value" x="1478" y="743">2 × BTL Class-D</text>
  <text class="pin" x="1402" y="780">VCC</text><text class="pin" x="1402" y="820">GND</text><text class="pin" x="1402" y="870">L_IN</text><text class="pin" x="1402" y="950">R_IN</text>
  <text class="pin" x="1620" y="845">L+</text><text class="pin" x="1620" y="885">L−</text><text class="pin" x="1620" y="945">R+</text><text class="pin" x="1620" y="985">R−</text>
  <path class="wire power" d="M1540 630 V780 H1390"/><path class="wire" d="M1390 820 H1350 V1100"/><use href="#gnd" x="1350" y="1100"/>
  <path class="wire signal" d="M1200 855 H1390 V870"/><use href="#tp" x="1230" y="855"/><text class="tptext" x="1230" y="859">TP14</text><use href="#tp" x="1360" y="870"/><text class="tptext" x="1360" y="874">TP16</text><text class="net" x="1245" y="842">WOOFER_AIN</text>
  <path class="wire signal" d="M1200 935 H1390 V950"/><use href="#tp" x="1230" y="935"/><text class="tptext" x="1230" y="939">TP15</text><use href="#tp" x="1360" y="950"/><text class="tptext" x="1360" y="954">TP17</text><text class="net" x="1245" y="922">TWEETER_AIN</text>
  <path class="wire signal" d="M1690 845 H1770"/><use href="#tp" x="1720" y="845"/><text class="tptext" x="1720" y="849">TP18</text>
  <path class="wire signal" d="M1690 885 H1770"/><use href="#tp" x="1720" y="885"/><text class="tptext" x="1720" y="889">TP19</text>
  <use href="#speaker" x="1770" y="865"/><text class="ref" x="1820" y="840">SPK1</text><text class="value" x="1820" y="860">WOOFER Ω TBD / G0</text>
  <path class="wire signal" d="M1690 945 H1730"/><use href="#tp" x="1715" y="945"/><text class="tptext" x="1715" y="949">TP20</text><use href="#cap" x="1730" y="945"/><text class="ref" x="1753" y="925">C_SAFE</text><text class="value" x="1740" y="978">FILM · TBD / G2</text>
  <path class="wire signal" d="M1796 945 H1810"/><path class="wire signal" d="M1690 985 H1810"/><use href="#tp" x="1715" y="985"/><text class="tptext" x="1715" y="989">TP21</text>
  <use href="#speaker" x="1810" y="965"/><text class="ref" x="1860" y="940">SPK2</text><text class="value" x="1860" y="960">TWEETER Ω TBD / G0</text>
  <text class="warn" x="1420" y="1075">BTL: L−/R− GND DEĞİL · scope ground klipsi TP18–TP21'e takılmaz</text>
  <text class="note" x="1420" y="1095">Diferansiyel prob; alternatif: iki 10× prob GND→TP6, MATH=CH1−CH2.</text>

  <!-- test point index -->
  <text class="sub" x="55" y="1160">Test Point Index</text>
  <text class="small" x="60" y="1190">TP0 B− · TP1 B1 · TP2 B2 · TP3 B3 · TP4 B+ · TP5 P+ · TP6 P−/GND · TP7 F1 OUT · TP8 VBAT_SW · TP9 5.10 V · TP10 3V3</text>
  <text class="small" x="60" y="1213">TP11 BCLK · TP12 LRCLK · TP13 DATA · TP14/15 DAC L/R · TP16/17 AMP IN · TP18/19 WOOFER BTL · TP20/21 TWEETER BTL</text>
  <text class="small" x="60" y="1236">TP22 BUTTON · TP23/24/25 RGB PWM · TP26 CHARGE+ · TP27 NTC · Power sequence: CH1 TP8 · CH2 TP9 · CH3 TP10 · CH4 TP14/15</text>
  <text class="warn" x="60" y="1265">ENERJİ VERME KAPILARI: G0 sürücü ölçümü → G1 dummy-load → G2 tweeter HPF/limiter/C_SAFE → G3 güç/EMI → G4 batarya/şarj.</text>

  <!-- title block -->
  <rect class="border" x="1120" y="1140" width="840" height="215"/>
  <path class="border" d="M1120 1190 H1960 M1120 1240 H1960 M1120 1290 H1960 M1280 1140 V1355 M1580 1140 V1355 M1770 1140 V1355"/>
  <text class="sheet" x="1135" y="1170">Schematic</text><text class="sheetval" x="1300" y="1172">Harman Kardom Prototype</text>
  <text class="sheet" x="1135" y="1220">Page</text><text class="sheetval" x="1300" y="1222">SCH-P1</text><text class="sheet" x="1595" y="1220">Status</text><text class="sheetval" x="1785" y="1222">PROPOSED</text>
  <text class="sheet" x="1135" y="1270">Drawn</text><text class="sheetval" x="1300" y="1272">Codex</text><text class="sheet" x="1595" y="1270">Date</text><text class="sheetval" x="1785" y="1272">2026-08-30</text>
  <text class="sheet" x="1135" y="1320">Reviewed</text><text class="sheetval" x="1300" y="1322">Physical gates pending</text><text class="sheet" x="1595" y="1320">Sheet</text><text class="sheetval" x="1785" y="1322">1 OF 1</text>
</svg>
